grf
version=1
nRows=7
nColumns=37
inDegrees=no
endheader
time	ground_force_1_vx	ground_force_1_vy	ground_force_1_vz	ground_force_1_px	ground_force_1_py	ground_force_1_pz	ground_moment_1_mx	ground_moment_1_my	ground_moment_1_mz	ground_force_2_vx	ground_force_2_vy	ground_force_2_vz	ground_force_2_px	ground_force_2_py	ground_force_2_pz	ground_moment_2_mx	ground_moment_2_my	ground_moment_2_mz	ground_force_3_vx	ground_force_3_vy	ground_force_3_vz	ground_force_3_px	ground_force_3_py	ground_force_3_pz	ground_moment_3_mx	ground_moment_3_my	ground_moment_3_mz	ground_force_4_vx	ground_force_4_vy	ground_force_4_vz	ground_force_4_px	ground_force_4_py	ground_force_4_pz	ground_moment_4_mx	ground_moment_4_my	ground_moment_4_mz
      5.09000000	      0.00000000	     -0.00000000	      0.00000000	      0.00000000	      0.00000000	      0.00000000	      0.00000000	      0.00000000	      0.00000000	     -7.96880579	    101.31022644	   -461.03863525	   -279.85605118	  -1235.30340218	      0.00000000	      0.00000000	     -0.00000000	  -2273.83864885	     -0.64943351	    -97.68545527	   -443.66635132	   -270.80306333	   -572.79808887	      0.00000000	      0.00000000	      0.00000000	   3352.67618847	      0.00000000	     -0.00000000	      0.00000000	      0.00000000	      0.00000000	      0.00000000	      0.00000000	      0.00000000	      0.00000000
      5.10000000	      0.00000000	     -0.00000000	      0.00000000	      0.00000000	      0.00000000	      0.00000000	      0.00000000	      0.00000000	      0.00000000	     -4.78370428	    101.49060822	   -467.47695923	   -280.60169686	  -1234.02899443	      0.00000000	      0.00000000	     -0.00000000	  -2191.68157061	     -1.12323609	    -98.47735586	   -447.15029907	   -270.74158224	   -572.43786095	      0.00000000	      0.00000000	      0.00000000	   3339.38251162	      0.00000000	     -0.00000000	      0.00000000	      0.00000000	      0.00000000	      0.00000000	      0.00000000	      0.00000000	      0.00000000
      5.11000000	      0.00000000	     -0.00000000	      0.00000000	      0.00000000	      0.00000000	      0.00000000	      0.00000000	      0.00000000	      0.00000000	     -2.56357026	    101.39360809	   -475.25546265	   -281.16761397	  -1233.83091016	      0.00000000	      0.00000000	     -0.00000000	  -1980.58308018	     -0.32493924	    -99.09693906	   -451.45709229	   -271.39439741	   -573.25520116	      0.00000000	      0.00000000	      0.00000000	   3323.31427116	      0.00000000	     -0.00000000	      0.00000000	      0.00000000	      0.00000000	      0.00000000	      0.00000000	      0.00000000	      0.00000000
      5.12000000	      0.00000000	     -0.00000000	      0.00000000	      0.00000000	      0.00000000	      0.00000000	      0.00000000	      0.00000000	      0.00000000	     -2.04581404	    102.55436707	   -480.30084229	   -281.78354860	  -1234.45172557	      0.00000000	      0.00000000	     -0.00000000	  -1757.58713559	      0.94736176	    -98.94995125	   -455.05654907	   -271.93359642	   -573.28187318	      0.00000000	      0.00000000	      0.00000000	   3258.86202473	      0.00000000	     -0.00000000	      0.00000000	      0.00000000	      0.00000000	      0.00000000	      0.00000000	      0.00000000	      0.00000000
      5.13000000	      0.00000000	     -0.00000000	      0.00000000	      0.00000000	      0.00000000	      0.00000000	      0.00000000	      0.00000000	      0.00000000	     -3.89665866	    103.78316498	   -484.44964600	   -282.11678619	  -1233.52976438	      0.00000000	      0.00000000	     -0.00000000	  -1919.43461523	      3.37129088	    -98.62636596	   -455.75964355	   -272.27815544	   -573.87466116	      0.00000000	      0.00000000	      0.00000000	   3203.69253169	      0.00000000	     -0.00000000	      0.00000000	      0.00000000	      0.00000000	      0.00000000	      0.00000000	      0.00000000	      0.00000000
      5.14000000	      0.00000000	     -0.00000000	      0.00000000	      0.00000000	      0.00000000	      0.00000000	      0.00000000	      0.00000000	      0.00000000	     -4.52500916	    104.21063995	   -483.98419189	   -282.54094174	  -1233.49878525	      0.00000000	      0.00000000	     -0.00000000	  -1903.79495065	      3.01622432	    -98.92042568	   -456.45745850	   -272.70252584	   -573.96279702	      0.00000000	      0.00000000	      0.00000000	   3173.55748203	      0.00000000	     -0.00000000	      0.00000000	      0.00000000	      0.00000000	      0.00000000	      0.00000000	      0.00000000	      0.00000000
      5.15000000	      0.00000000	     -0.00000000	      0.00000000	      0.00000000	      0.00000000	      0.00000000	      0.00000000	      0.00000000	      0.00000000	     -4.84575129	    103.80045319	   -482.33142090	   -282.81103213	  -1233.66108397	      0.00000000	      0.00000000	     -0.00000000	  -2042.58925079	      1.38954979	    -98.83197034	   -456.80767822	   -273.21789451	   -573.76138187	      0.00000000	      0.00000000	      0.00000000	   3113.41903106	      0.00000000	     -0.00000000	      0.00000000	      0.00000000	      0.00000000	      0.00000000	      0.00000000	      0.00000000	      0.00000000
